<?xml version="1.0" encoding="UTF-8" standalone="no"?>
<svg
   xmlns:dc="http://purl.org/dc/elements/1.1/"
   xmlns:cc="http://creativecommons.org/ns#"
   xmlns:rdf="http://www.w3.org/1999/02/22-rdf-syntax-ns#"
   xmlns:svg="http://www.w3.org/2000/svg"
   xmlns="http://www.w3.org/2000/svg"
   version="1.1"
   width="11"
   height="11"
   viewBox="0 0 11 11"
   id="svg2">
  <metadata
     id="metadata8">
    <rdf:RDF>
      <cc:Work
         rdf:about="">
        <dc:format>image/svg+xml</dc:format>
        <dc:type
           rdf:resource="http://purl.org/dc/dcmitype/StillImage" />
        <dc:title></dc:title>
      </cc:Work>
    </rdf:RDF>
  </metadata>
  <defs
     id="defs6" />
  <path
     d="M 1.6296194,0.40747356 C 0.67993613,0.40747356 0,1.0556722 0,2.037093 V 11 H 5.7036679 V 4.5833733 c 0,0 0.7129585,-0.1018512 0.7129585,0.7129585 v 3.2592389 c 0,1.6296193 1.519374,1.7314713 1.7314706,1.7314713 0.2246039,0 1.7314706,-0.101831 1.7314706,-1.7314713 V 5.2963318 c 0,0 1.1305954,0.014159 1.1203634,-2.4189663 H 10.388824 V 1.2477461 c 0,-0.46212614 -0.6111076,-0.45934254 -0.6111076,-0.025463 V 2.8519027 H 8.9629067 V 1.2222833 c 0,-0.44503634 -0.6111073,-0.44422384 -0.6111073,0 V 2.8519027 H 7.7406922 c 0.010201,2.4333399 1.1203633,2.4444291 1.1203633,2.4444291 v 3.2592389 c 0,0.712273 -0.6250699,0.712958 -0.7129585,0.712958 -0.087889,0 -0.7129585,-0.03486 -0.7129585,-0.712958 V 5.2963318 c 0,-1.0436966 -0.9166609,-1.7314706 -1.7314706,-1.7314706 V 2.037093 c 0,-0.9960689 -0.6652884,-1.62961944 -1.6296194,-1.62961944 z M 2.4189663,2.037093 H 4.659693 L 3.2592388,4.2099189 h 1.680545 L 1.8587846,8.5555707 H 1.298603 L 2.4189663,5.2963318 H 1.0185121 Z"
     id="charging-station"
     style="fill:#000000;fill-opacity:1;stroke:none;stroke-width:0.81480968" />
</svg>
