<?xml version="1.0" encoding="UTF-8" standalone="no"?>
<svg
   xmlns:dc="http://purl.org/dc/elements/1.1/"
   xmlns:cc="http://creativecommons.org/ns#"
   xmlns:rdf="http://www.w3.org/1999/02/22-rdf-syntax-ns#"
   xmlns:svg="http://www.w3.org/2000/svg"
   xmlns="http://www.w3.org/2000/svg"
   width="14"
   height="14"
   viewBox="0 0 14 14"
   id="svg2"
   version="1.1">
  <metadata
     id="metadata10">
    <rdf:RDF>
      <cc:Work
         rdf:about="">
        <dc:format>image/svg+xml</dc:format>
        <dc:type
           rdf:resource="http://purl.org/dc/dcmitype/StillImage" />
        <dc:title></dc:title>
      </cc:Work>
    </rdf:RDF>
  </metadata>
  <defs
     id="defs8" />
  <path
     d="M 0.33626177,0.2139571 V 10.097526 H 1.7776156 V 5.9793722 h 3.5004305 a 2.4708922,2.8827076 0 0 0 0,-5.7654151 z M 1.7776156,1.6553109 v 2.8827076 h 3.0886153 a 1.3013366,1.4413538 0 0 0 0,-2.8827076 z"
     id="path4"
     style="fill:#444444;fill-opacity:1;fill-rule:evenodd;stroke-width:0.82363069" />
  <path
     id="path2288"
     style="fill:#444444;fill-opacity:1;stroke-width:0.00853229"
     d="m 7.4686133,12.023194 c 0.5076712,0 0.9189276,0.411257 0.9189276,0.919781 0,0.507671 -0.4112564,0.918928 -0.9189276,0.918928 -0.5076712,0 -0.9189276,-0.411257 -0.9189276,-0.918928 -8.5e-4,-0.508524 0.4112564,-0.919781 0.9189276,-0.919781 z m -0.424908,0.918928 c 0,0.234637 0.19027,0.424908 0.424908,0.424908 0.234638,0 0.424908,-0.190271 0.424908,-0.424908 0,-0.234638 -0.19027,-0.424908 -0.424908,-0.424908 -0.234638,0 -0.424908,0.19027 -0.424908,0.424908 z m 5.2430927,-0.918928 c 0.507671,0 0.918928,0.411257 0.918928,0.919781 0,0.507671 -0.411257,0.918928 -0.918928,0.918928 -0.507671,0 -0.918927,-0.411257 -0.918927,-0.918928 0,-0.508524 0.411256,-0.919781 0.918927,-0.919781 z m -0.424908,0.918928 c 0,0.234637 0.19027,0.424908 0.424908,0.424908 0.234638,0 0.424908,-0.190271 0.424908,-0.424908 0,-0.234638 -0.19027,-0.424908 -0.424908,-0.424908 -0.234638,0 -0.424908,0.19027 -0.424908,0.424908 z M 5.7809263,11.885824 c 0,0.0017 -8.5e-4,0.902716 -8.5e-4,0.902716 0,0.09642 0.077644,0.174913 0.1732055,0.174913 h 0.365182 c -0.069112,-0.538388 0.4180823,-1.029848 0.6859961,-1.077629 -0.2184266,0 -1.2235304,0 -1.2235304,0 z m 2.8207751,1.077629 h 2.5443296 c 0,-0.0068 -8.5e-4,-0.01451 -8.5e-4,-0.02134 0,-0.05204 0.03072,-0.271327 0.04778,-0.32764 0.064,-0.215867 0.350678,-0.824218 1.094693,-0.824218 0.757667,0 1.030701,0.608351 1.094693,0.824218 0.01621,0.05631 0.04778,0.276446 0.04778,0.32764 0,0.0076 -8.5e-4,0.0145 -8.5e-4,0.02134 h 0.189416 c 0.09556,0 0.173206,-0.07765 0.173206,-0.174913 v -0.897597 c 0,-0.04437 -0.01707,-0.08447 -0.04437,-0.115186 v -1.30544 c 0,-1.0093698 -0.660399,-1.5315459 -0.688555,-1.5537299 -0.03072,-0.023037 -0.0674,-0.035836 -0.104948,-0.035836 H 11.55985 c -0.05119,0 -0.09642,0.023037 -0.128837,0.058873 v 2.8745289 c 0,0.07082 -0.04522,0.116039 -0.115186,0.116039 H 8.0070008 c 0.555452,0.215014 0.5938474,0.784117 0.5947006,1.033261 z M 11.733052,10.252744 V 9.2305754 h 1.156126 c 0.115186,0.1066536 0.43088,0.4487985 0.498285,1.0221686 z M 5.429396,7.8423718 V 11.69726 h 5.771241 l 0.0051,-3.8548882 c 0,-0.096415 -0.07765,-0.1749119 -0.173205,-0.1749119 H 5.6026015 c -0.095562,8.5e-4 -0.1732055,0.078497 -0.1732055,0.1749119 z" />
</svg>
