<?xml version="1.0" encoding="UTF-8" standalone="no"?>
<svg
   xmlns:dc="http://purl.org/dc/elements/1.1/"
   xmlns:cc="http://creativecommons.org/ns#"
   xmlns:rdf="http://www.w3.org/1999/02/22-rdf-syntax-ns#"
   xmlns:svg="http://www.w3.org/2000/svg"
   xmlns="http://www.w3.org/2000/svg"
   width="14"
   height="14"
   viewBox="0 0 14 14"
   id="svg2"
   version="1.1">
  <metadata
     id="metadata10">
    <rdf:RDF>
      <cc:Work
         rdf:about="">
        <dc:format>image/svg+xml</dc:format>
        <dc:type
           rdf:resource="http://purl.org/dc/dcmitype/StillImage" />
        <dc:title></dc:title>
      </cc:Work>
    </rdf:RDF>
  </metadata>
  <defs
     id="defs8" />
  <g
     transform="matrix(0.01677849,0,0,0.01677849,5.8083153,4.4296917)"
     id="g2167"
     style="overflow:visible;fill:#444444;fill-opacity:1" />
  <g
     transform="matrix(0.01555348,0,0,0.01555348,6.2947548,5.3792861)"
     id="g3620"
     style="overflow:visible;fill:#444444;fill-opacity:1">
    <path
       d="m 343.41992,451.59082 c -30.44726,60.1875 -94.1748,99.83984 -162.15039,99.83984 C 81.429687,551.43066 0,470.00098 0,370.16113 0,300.06055 42.485352,234.91748 105.88184,206.04004 l 4.10254,53.5376 c -37.497075,23.62841 -60.61231,66.2622 -60.61231,110.95068 0,72.42676 59.07129,131.49707 131.49707,131.49707 66.26172,0 122.76465,-50.85156 130.46973,-116.08691 z M 161.98828,98.124023 C 186.95117,95.819336 206.3457,74.312988 206.3457,49.158203 206.3457,22.083008 184.2627,0 157.1875,0 c -27.0752,0 -49.15723,22.083008 -49.15723,49.158203 0,8.256836 2.30371,16.705567 6.14453,23.810547 l 17.51563,246.4668 180.39648,0.0488 73.99121,173.36524 97.14454,-38.09766 -15.04297,-35.82031 -54.36621,19.625 -71.59082,-165.28027 -167.7295,1.12695 -2.30273,-31.21289 121.42285,0.0483 V 197.0556 L 167.55859,197.0063 Z M -381.56893,-332.10117 V 303.3559 h 92.67082 V 38.582111 h 225.057709 c 87.718287,-0.03312 158.812783,-83.003704 158.812783,-185.341641 0,-102.33794 -71.094496,-185.30851 -158.812783,-185.34164 z m 92.67082,92.67081 v 185.341654 h 198.580342 c 46.208878,0 83.6684816,-41.490143 83.6684816,-92.670824 0,-51.18068 -37.4596036,-92.67083 -83.6684816,-92.67083 z"
       style="clip-rule:evenodd;fill:#444444;fill-rule:evenodd;fill-opacity:1"
       id="path3609" />
  </g>
</svg>
