<?xml version="1.0" encoding="UTF-8" standalone="no"?>
<svg
   xmlns:dc="http://purl.org/dc/elements/1.1/"
   xmlns:cc="http://creativecommons.org/ns#"
   xmlns:rdf="http://www.w3.org/1999/02/22-rdf-syntax-ns#"
   xmlns:svg="http://www.w3.org/2000/svg"
   xmlns="http://www.w3.org/2000/svg"
   version="1.1"
   id="svg2985"
   height="13.921738"
   width="13.409739">
  <defs
     id="defs2987" />
  <metadata
     id="metadata2990">
    <rdf:RDF>
      <cc:Work
         rdf:about="">
        <dc:format>image/svg+xml</dc:format>
        <dc:type
           rdf:resource="http://purl.org/dc/dcmitype/StillImage" />
        <dc:title></dc:title>
      </cc:Work>
    </rdf:RDF>
  </metadata>
  <g
     transform="translate(-9.0178001,-6.9057968)"
     id="layer1">
    <path
       d="m 17.066667,13.866668 h 5.020834 v 0 0 m -6.364832,6.4 v -5.12 m 1.280001,-1.28 a 1.2800004,1.2800004 0 0 1 -1.28,1.28 1.2800004,1.2800004 0 0 1 -1.280001,-1.28 1.2800004,1.2800004 0 0 1 1.280001,-1.280001 1.2800004,1.2800004 0 0 1 1.28,1.280001 z m -7.4026697,0 h 5.0833337 v 0 0 m 7.183337,-2e-6 A 6.1440015,6.400001 0 0 0 15.72267,7.4666648 6.1440015,6.400001 0 0 0 9.5786681,13.866666 6.1440015,6.400001 0 0 0 15.72267,20.266667 6.1440015,6.400001 0 0 0 21.866671,13.866666 Z"
       style="fill:none;stroke:#444444;stroke-width:0.6760233;stroke-linecap:butt;stroke-linejoin:miter;stroke-miterlimit:4;stroke-dasharray:none;stroke-opacity:1"
       id="path3952-3" />
  </g>
</svg>
