<?xml version="1.0" encoding="UTF-8" standalone="no"?>
<svg
   xmlns:dc="http://purl.org/dc/elements/1.1/"
   xmlns:cc="http://creativecommons.org/ns#"
   xmlns:rdf="http://www.w3.org/1999/02/22-rdf-syntax-ns#"
   xmlns:svg="http://www.w3.org/2000/svg"
   xmlns="http://www.w3.org/2000/svg"
   version="1.1"
   id="Capa_1"
   x="0px"
   y="0px"
   viewBox="0 0 11 11"
   xml:space="preserve"
   width="11"
   height="11"><metadata
   id="metadata955"><rdf:RDF><cc:Work
       rdf:about=""><dc:format>image/svg+xml</dc:format><dc:type
         rdf:resource="http://purl.org/dc/dcmitype/StillImage" /><dc:title></dc:title></cc:Work></rdf:RDF></metadata><defs
   id="defs953" />
<g
   id="g918"
   style="fill:#444444;fill-opacity:1"
   transform="matrix(0.20504509,0,0,0.20504509,-0.8070412,-0.77695449)">
	<g
   id="g916"
   style="fill:#444444;fill-opacity:1">
		<path
   style="fill:#444444;fill-opacity:1"
   d="M 54.721912,22.872902 33.539476,42.079147 c -1.605,1.404 -2.265719,1.766592 -3.830719,1.669592 -2.286,-0.145 -3.687928,-1.567609 -3.701928,-1.583609 L 6.6700839,23.723228 4.1650042,25.781294 24.109884,44.727063 c 0.248,0.28 2.295349,2.242114 5.091349,2.425114 0.143,0.01 0.607937,0.0089 0.751937,0.0089 1.863,0 3.989878,-0.640296 5.775878,-2.201296 L 57.353574,25.475129 Z"
   id="path910" />
		<circle
   style="fill:#444444;fill-opacity:1"
   cx="41.755001"
   cy="18.658001"
   r="4.5939999"
   id="circle912" />
		<path
   style="fill:#444444;fill-opacity:1"
   d="m 27.054,40.402 c 0.007,0.008 0.014,0.018 0.022,0.023 0.109,0.108 0.223,0.209 0.34,0.301 0.24,0.215 0.48,0.43 0.72,0.646 1.487,1.33 3.379,0.664 4.26,-0.591 0.17,-0.118 0.334,-0.243 0.488,-0.386 2.815,-2.574 5.631,-5.15 8.443,-7.727 0.16,-0.086 0.318,-0.188 0.471,-0.324 3.469,-3.104 6.938,-6.207 10.404,-9.311 2.111,-1.887 -0.998,-4.974 -3.098,-3.097 -2.492,2.229 -4.982,4.458 -7.474,6.687 -0.013,-0.011 -0.022,-0.025 -0.034,-0.037 -1.652,-1.63 -4.158,-1.48 -5.81,0.031 -2.629,2.403 -5.255,4.807 -7.881,7.208 -4.991,-4.468 -9.982,-8.936 -14.972,-13.403 -2.62,-2.348 -6.507,1.511 -3.87,3.872 5.998,5.371 11.994,10.739 17.991,16.108 z"
   id="path914" />
	</g>
</g>
<g
   id="g920"
   transform="translate(-0.75569965,-47.182926)">
</g>
<g
   id="g922"
   transform="translate(-0.75569965,-47.182926)">
</g>
<g
   id="g924"
   transform="translate(-0.75569965,-47.182926)">
</g>
<g
   id="g926"
   transform="translate(-0.75569965,-47.182926)">
</g>
<g
   id="g928"
   transform="translate(-0.75569965,-47.182926)">
</g>
<g
   id="g930"
   transform="translate(-0.75569965,-47.182926)">
</g>
<g
   id="g932"
   transform="translate(-0.75569965,-47.182926)">
</g>
<g
   id="g934"
   transform="translate(-0.75569965,-47.182926)">
</g>
<g
   id="g936"
   transform="translate(-0.75569965,-47.182926)">
</g>
<g
   id="g938"
   transform="translate(-0.75569965,-47.182926)">
</g>
<g
   id="g940"
   transform="translate(-0.75569965,-47.182926)">
</g>
<g
   id="g942"
   transform="translate(-0.75569965,-47.182926)">
</g>
<g
   id="g944"
   transform="translate(-0.75569965,-47.182926)">
</g>
<g
   id="g946"
   transform="translate(-0.75569965,-47.182926)">
</g>
<g
   id="g948"
   transform="translate(-0.75569965,-47.182926)">
</g>
</svg>