<?xml version="1.0" encoding="UTF-8" standalone="no"?>
<!-- Generator: Adobe Illustrator 18.1.1, SVG Export Plug-In . SVG Version: 6.00 Build 0)  -->

<svg
   xmlns:dc="http://purl.org/dc/elements/1.1/"
   xmlns:cc="http://creativecommons.org/ns#"
   xmlns:rdf="http://www.w3.org/1999/02/22-rdf-syntax-ns#"
   xmlns:svg="http://www.w3.org/2000/svg"
   xmlns="http://www.w3.org/2000/svg"
   xmlns:sodipodi="http://sodipodi.sourceforge.net/DTD/sodipodi-0.dtd"
   xmlns:inkscape="http://www.inkscape.org/namespaces/inkscape"
   version="1.1"
   id="Capa_1"
   x="0px"
   y="0px"
   viewBox="0 0 60.626 60.626"
   style="enable-background:new 0 0 60.626 60.626;"
   xml:space="preserve"
   sodipodi:docname="hammock_11.svg"
   inkscape:version="0.92.4 (5da689c313, 2019-01-14)"><metadata
   id="metadata955"><rdf:RDF><cc:Work
       rdf:about=""><dc:format>image/svg+xml</dc:format><dc:type
         rdf:resource="http://purl.org/dc/dcmitype/StillImage" /><dc:title></dc:title></cc:Work></rdf:RDF></metadata><defs
   id="defs953" /><sodipodi:namedview
   pagecolor="#ffffff"
   bordercolor="#666666"
   borderopacity="1"
   objecttolerance="10"
   gridtolerance="10"
   guidetolerance="10"
   inkscape:pageopacity="0"
   inkscape:pageshadow="2"
   inkscape:window-width="1918"
   inkscape:window-height="1058"
   id="namedview951"
   showgrid="false"
   inkscape:zoom="3.8927193"
   inkscape:cx="-45.21261"
   inkscape:cy="30.313"
   inkscape:window-x="0"
   inkscape:window-y="20"
   inkscape:window-maximized="0"
   inkscape:current-layer="Capa_1" />
<g
   id="g918"
   style="fill:#444444;fill-opacity:1">
	<g
   id="g916"
   style="fill:#444444;fill-opacity:1">
		<path
   style="fill:#444444;fill-opacity:1"
   d="M59.601,20.867L33.927,43.31c-1.605,1.404-3.213,2.068-4.778,1.971    c-2.286-0.145-3.798-1.882-3.812-1.898L1.066,20.46L0,21.324l24.196,22.847c0.248,0.28,2.037,2.192,4.833,2.375    c0.143,0.01,0.285,0.016,0.429,0.016c1.863,0,3.71-0.791,5.496-2.352l25.672-22.444L59.601,20.867z"
   id="path910" />
		<circle
   style="fill:#444444;fill-opacity:1"
   cx="41.755"
   cy="18.658"
   r="4.594"
   id="circle912" />
		<path
   style="fill:#444444;fill-opacity:1"
   d="M27.054,40.402c0.007,0.008,0.014,0.018,0.022,0.023c0.109,0.108,0.223,0.209,0.34,0.301    c0.24,0.215,0.48,0.43,0.72,0.646c1.487,1.33,3.379,0.664,4.26-0.591c0.17-0.118,0.334-0.243,0.488-0.386    c2.815-2.574,5.631-5.15,8.443-7.727c0.16-0.086,0.318-0.188,0.471-0.324c3.469-3.104,6.938-6.207,10.404-9.311    c2.111-1.887-0.998-4.974-3.098-3.097c-2.492,2.229-4.982,4.458-7.474,6.687c-0.013-0.011-0.022-0.025-0.034-0.037    c-1.652-1.63-4.158-1.48-5.81,0.031c-2.629,2.403-5.255,4.807-7.881,7.208c-4.991-4.468-9.982-8.936-14.972-13.403    c-2.62-2.348-6.507,1.511-3.87,3.872C15.061,29.665,21.057,35.033,27.054,40.402z"
   id="path914" />
	</g>
</g>
<g
   id="g920">
</g>
<g
   id="g922">
</g>
<g
   id="g924">
</g>
<g
   id="g926">
</g>
<g
   id="g928">
</g>
<g
   id="g930">
</g>
<g
   id="g932">
</g>
<g
   id="g934">
</g>
<g
   id="g936">
</g>
<g
   id="g938">
</g>
<g
   id="g940">
</g>
<g
   id="g942">
</g>
<g
   id="g944">
</g>
<g
   id="g946">
</g>
<g
   id="g948">
</g>
</svg>