<?xml version="1.0" encoding="UTF-8" standalone="no"?>
<svg
   xmlns:dc="http://purl.org/dc/elements/1.1/"
   xmlns:cc="http://creativecommons.org/ns#"
   xmlns:rdf="http://www.w3.org/1999/02/22-rdf-syntax-ns#"
   xmlns:svg="http://www.w3.org/2000/svg"
   xmlns="http://www.w3.org/2000/svg"
   height="11"
   width="11"
   xml:space="preserve"
   viewBox="0 0 11 11"
   y="0px"
   x="0px"
   id="Capa_1"
   version="1.1"><metadata
   id="metadata955"><rdf:RDF><cc:Work
       rdf:about=""><dc:format>image/svg+xml</dc:format><dc:type
         rdf:resource="http://purl.org/dc/dcmitype/StillImage" /><dc:title></dc:title></cc:Work></rdf:RDF></metadata><defs
   id="defs953" />
<g
   transform="scale(0.18144031)"
   style="fill:#444444;fill-opacity:1"
   id="g918">
	<g
   style="fill:#444444;fill-opacity:1"
   id="g916">
		<path
   id="path910"
   d="M 59.601,20.867 33.927,43.31 c -1.605,1.404 -3.213,2.068 -4.778,1.971 -2.286,-0.145 -3.798,-1.882 -3.812,-1.898 L 1.066,20.46 0,21.324 24.196,44.171 c 0.248,0.28 2.037,2.192 4.833,2.375 0.143,0.01 0.285,0.016 0.429,0.016 1.863,0 3.71,-0.791 5.496,-2.352 L 60.626,21.766 Z"
   style="fill:#444444;fill-opacity:1" />
		<circle
   id="circle912"
   r="4.5939999"
   cy="18.658001"
   cx="41.755001"
   style="fill:#444444;fill-opacity:1" />
		<path
   id="path914"
   d="m 27.054,40.402 c 0.007,0.008 0.014,0.018 0.022,0.023 0.109,0.108 0.223,0.209 0.34,0.301 0.24,0.215 0.48,0.43 0.72,0.646 1.487,1.33 3.379,0.664 4.26,-0.591 0.17,-0.118 0.334,-0.243 0.488,-0.386 2.815,-2.574 5.631,-5.15 8.443,-7.727 0.16,-0.086 0.318,-0.188 0.471,-0.324 3.469,-3.104 6.938,-6.207 10.404,-9.311 2.111,-1.887 -0.998,-4.974 -3.098,-3.097 -2.492,2.229 -4.982,4.458 -7.474,6.687 -0.013,-0.011 -0.022,-0.025 -0.034,-0.037 -1.652,-1.63 -4.158,-1.48 -5.81,0.031 -2.629,2.403 -5.255,4.807 -7.881,7.208 -4.991,-4.468 -9.982,-8.936 -14.972,-13.403 -2.62,-2.348 -6.507,1.511 -3.87,3.872 5.998,5.371 11.994,10.739 17.991,16.108 z"
   style="fill:#444444;fill-opacity:1" />
	</g>
</g>
<g
   transform="translate(0,-49.625999)"
   id="g920">
</g>
<g
   transform="translate(0,-49.625999)"
   id="g922">
</g>
<g
   transform="translate(0,-49.625999)"
   id="g924">
</g>
<g
   transform="translate(0,-49.625999)"
   id="g926">
</g>
<g
   transform="translate(0,-49.625999)"
   id="g928">
</g>
<g
   transform="translate(0,-49.625999)"
   id="g930">
</g>
<g
   transform="translate(0,-49.625999)"
   id="g932">
</g>
<g
   transform="translate(0,-49.625999)"
   id="g934">
</g>
<g
   transform="translate(0,-49.625999)"
   id="g936">
</g>
<g
   transform="translate(0,-49.625999)"
   id="g938">
</g>
<g
   transform="translate(0,-49.625999)"
   id="g940">
</g>
<g
   transform="translate(0,-49.625999)"
   id="g942">
</g>
<g
   transform="translate(0,-49.625999)"
   id="g944">
</g>
<g
   transform="translate(0,-49.625999)"
   id="g946">
</g>
<g
   transform="translate(0,-49.625999)"
   id="g948">
</g>
</svg>