<?xml version="1.0" encoding="UTF-8" standalone="no"?>
<svg
   xmlns:dc="http://purl.org/dc/elements/1.1/"
   xmlns:cc="http://creativecommons.org/ns#"
   xmlns:rdf="http://www.w3.org/1999/02/22-rdf-syntax-ns#"
   xmlns:svg="http://www.w3.org/2000/svg"
   xmlns="http://www.w3.org/2000/svg"
   id="svg1002"
   viewBox="0 0 11 11"
   height="11"
   width="11"
   version="1.1">
  <metadata
     id="metadata1008">
    <rdf:RDF>
      <cc:Work
         rdf:about="">
        <dc:format>image/svg+xml</dc:format>
        <dc:type
           rdf:resource="http://purl.org/dc/dcmitype/StillImage" />
        <dc:title></dc:title>
      </cc:Work>
    </rdf:RDF>
  </metadata>
  <defs
     id="defs1006" />
  <rect
     style="visibility:hidden;fill:none;stroke:none"
     id="canvas"
     y="-3"
     x="0"
     height="14"
     width="14" />
  <path
     style="stroke-width:0.78571433"
     id="toilets"
     d="M 4.9107143,0 V 11 H 6.0892857 V 0 Z M 1.9642857,0.7857143 c -0.6509069,0 -1.17857141,0.5276644 -1.17857141,1.1785714 0,0.650907 0.52766451,1.1785714 1.17857141,1.1785714 0.6509069,0 1.1785714,-0.5276644 1.1785714,-1.1785714 0,-0.650907 -0.5276645,-1.1785714 -1.1785714,-1.1785714 z m 7.0714286,0 c -0.6509069,0 -1.1785714,0.5276644 -1.1785714,1.1785714 0,0.650907 0.5276645,1.1785714 1.1785714,1.1785714 0.6509069,0 1.1785717,-0.5276644 1.1785717,-1.1785714 0,-0.650907 -0.5276648,-1.1785714 -1.1785717,-1.1785714 z M 1.1785714,3.9285714 c -0.47121011,0 -0.78571426,0.446714 -0.78571426,0.7857143 C 0.39285714,5.1286195 1.375,5.890214 1.375,6.2857143 1.375,6.722551 0,7.071429 0,8.642857 H 1.375 V 11 H 2.5535714 V 8.642857 h 1.375 c 0,-1.571428 -1.375,-1.9410999 -1.375,-2.3571427 0,-0.416042 0.9821429,-1.1382615 0.9821429,-1.5714286 0,-0.320167 -0.3337141,-0.7857143 -0.7857143,-0.7857143 z m 6.6785715,0 c -0.4143339,0 -0.7857143,0.3775121 -0.7857143,0.7857143 0,0.7857143 1.375,3.1554863 1.375,3.9285713 V 11 H 9.625 V 8.642857 C 9.625,7.88507 11,5.5 11,4.7142857 11,4.279484 10.647453,3.9285714 10.214286,3.9285714 Z" />
</svg>
